<svg width="1315" height="1379" viewBox="0 0 1315 1379" fill="none" xmlns="http://www.w3.org/2000/svg">
<g clip-path="url(#clip0_507_2)">
<path d="M1312.91 741.51C1316.1 690.21 1314.71 637.73 1307.46 587.21C1302.27 549.99 1297.44 511.78 1284.09 476.12C1253.07 389.8 1211.82 306.96 1152.16 237.28C1072.01 141.95 975.12 70.6701 856.14 31.5301C684.32 -25.5799 489.52 -4.1999 333.87 88.2801C138.59 213.51 17.8 409.1 1.90997 639.75C-5.39003 738.53 8.24997 839.44 42.31 932.51C49.49 955.27 58 979.51 69.77 998.94C83.34 1026.8 98.89 1054.38 115.86 1080.07C194.25 1202.85 315.6 1293.05 449.32 1345.78C488.97 1361.91 532.17 1366.21 573.57 1374.83C602.62 1380.03 632.04 1377.38 661.72 1378.41C739.56 1379.85 818.72 1366.46 890.51 1335.62C1039.69 1271.06 1157.22 1166.46 1232.96 1022.91C1261.81 966.9 1284.04 908.21 1299.82 847.54C1304.67 813.53 1310.02 778.57 1312.71 744.15L1312.9 741.51H1312.91ZM1302 716.13C1302 716.13 1302.08 716.16 1302.11 716.18C1302.06 716.22 1302.04 716.27 1301.99 716.32C1301.99 716.26 1301.99 716.2 1301.99 716.13H1302ZM1140.76 252.72C1140.76 252.72 1140.75 252.76 1140.74 252.77C1140.74 252.75 1140.72 252.73 1140.72 252.7C1140.73 252.7 1140.75 252.71 1140.76 252.71V252.72ZM872.77 1319.92C874.25 1319.16 875.54 1319.55 876 1320.55C875.11 1320.18 874.01 1319.97 872.77 1319.92ZM1066.75 1212.34C1066.79 1212.45 1066.8 1212.57 1066.84 1212.68C1066.86 1212.77 1066.91 1212.84 1066.93 1212.93C1066.76 1212.74 1066.62 1212.55 1066.47 1212.36C1066.59 1212.36 1066.66 1212.35 1066.75 1212.34ZM1232.66 958.54C1098.54 1277.07 741.91 1435.29 420.12 1300.7C198.14 1208.4 47.65 984.31 29.86 746.38C22.83 710.1 25.99 673.65 28.93 636.95C34.86 567.17 52.37 494.62 78.78 429.85C107.75 361.49 146.05 299.22 192.85 241.7C228.16 202.18 267.89 166.95 312.1 136.39C457.51 43.6801 638.42 6.25011 806.77 50.7201C917.3 79.6301 1022.12 138.26 1102.01 220.29C1161.94 289.22 1217.88 368.38 1248.67 455.61C1265.89 518.2 1283.68 581.76 1287.44 646.79C1293.44 752.46 1274.39 860.13 1233.17 957.4L1232.65 958.54H1232.66Z" fill="url(#paint0_linear_507_2)"/>
<path d="M172.88 1112.01L172.77 1112.46C172.77 1112.46 172.79 1112.5 172.81 1112.52L172.89 1112.01H172.88Z" fill="url(#paint1_linear_507_2)"/>
<path d="M1071.95 493.41C1077.85 391.86 948.51 398.62 882.93 427.64C857.05 438.46 834.21 454.12 812.54 471.71C796.62 484.08 782.99 503.29 765.05 510.75C751.32 516.56 736.1 515.48 721.58 516.89C702.53 518.52 684.09 521.14 664.58 522.42C651.39 523.46 639.68 524.38 626.73 525.39C612.71 524.99 594.09 531.97 583.27 522.53C578.07 516.38 585.12 500.43 585.09 485.71C587.15 453.24 565.44 425.96 535.79 416.15C470.22 395.28 398.86 419.96 344.54 457.76C274.36 504.11 233.84 567.6 205.15 645.62C177.12 724.93 169.91 824.47 211.88 899.7C241.86 941.2 296.97 958.52 346.78 958.87C390.91 955.22 426.04 923.45 456.65 893.66C479.25 870.41 497.5 844.73 512.5 816.31C519.28 803.91 523.84 790.24 528.74 777.22C531.77 769.08 538.44 759.07 547.99 760.55C566.59 767.21 548.97 794.94 545.73 808.45C544.46 812.02 542.38 817.94 541.44 820.52C521.82 876.93 500.35 933.22 485.53 990.73C478.05 1020.5 504.4 1046.9 528.98 1059.64C539.64 1064.56 550.59 1064.3 555.61 1054.12C561.48 1040.26 562.3 1022.2 565.65 1008.37C569.82 982.04 579.8 957.95 585.67 932.27C594.38 890.2 608.31 848.04 622.29 807.11C640.02 746.39 661.61 687.08 686.26 629.19C690.44 619.83 693.8 611.81 698.22 602.8C701.18 596.49 709.73 584.37 714.88 585.17C715.7 585.34 716.41 586.13 716.57 586.87C717.54 590.03 716.26 593.96 715.16 597.37C707.23 615.88 698.16 636.3 692.89 653.87C666.17 736.12 655.88 880.41 739.72 932.47C768.6 951.07 804.98 962.42 839.03 958.99C861.13 955.16 879.88 938.9 897.25 924.39C917.2 906.34 999.44 832.01 994.92 808.43C986.39 799.82 968.51 821.78 959.79 828.01C947.35 838.6 933.07 849.81 918.8 860.55C892.62 878.7 849.96 914.26 817.1 908.55C759.88 885.97 764.87 788.76 771.43 738.11C786.24 641.14 835.75 529.82 911.35 464.96C931.01 450.18 957.44 434.32 984.7 432.84C1010.52 430.75 1028.48 449.84 1022.21 473.61C1017.2 497.31 996.14 512.61 982.05 534.3C972.54 547.78 983.67 569.43 998.37 578.81C1039.27 606.36 1070.17 522.9 1071.86 494.58L1071.95 493.39V493.41ZM614.52 626.68C614.64 626.75 614.75 626.84 614.87 626.88C614.77 627.07 614.66 627.22 614.56 627.42C614.54 627.15 614.53 626.94 614.52 626.68ZM585.44 819.51C585.44 819.51 585.43 819.46 585.42 819.44C585.57 819.39 585.72 819.37 585.86 819.31C585.74 819.39 585.58 819.45 585.43 819.51H585.44ZM799.9 570.01C799.83 569.95 799.76 569.9 799.69 569.84C799.69 569.84 799.71 569.84 799.72 569.83C799.78 569.89 799.84 569.95 799.9 570.01ZM800.03 570.14C800.03 570.14 800.09 570.2 800.12 570.23C800.12 570.23 800.12 570.23 800.12 570.24C800.09 570.21 800.07 570.17 800.03 570.14ZM686.53 733.88C686.22 733.45 685.99 733.11 685.71 732.7C685.94 732.64 686.17 732.59 686.38 732.47C686.43 732.94 686.43 733.37 686.53 733.88ZM679.44 523.84C679.32 523.27 679.56 523.48 679.44 523.84V523.84ZM575.42 461.77C575.28 462.08 575.17 462.31 575.02 462.64C574.96 462.34 574.85 462.08 574.77 461.8C574.98 461.8 575.2 461.8 575.42 461.78V461.77ZM278.77 857.51C278.91 857.2 279.24 857 279.86 856.97C279.5 857.14 279.15 857.3 278.77 857.51ZM388.01 904.8C373.11 916.09 353.79 929.53 334.47 922.98C282.12 899.19 269.48 826.93 270.26 774.36C273.97 678.81 308.13 585.85 372.84 515.27C406.83 474.8 457.96 426.8 514.85 435.91C541.9 441.09 541.81 472.28 528.99 493.11C521.25 505.75 509.14 517.98 496.07 521.03C488.73 523.04 480.01 523.11 473.58 526.97C455.07 541.97 467.12 575.3 483.85 587.86C501.94 602.38 530.13 600.53 554.14 599.5C569.99 599.38 591.11 595.73 605.22 596.71C619.39 598.38 613.41 613.71 610.72 622.92C604.3 647.92 595.66 668.12 587.67 691.74C583.26 702.8 580.48 718.22 572.82 726.83C571.22 727.73 569.79 726.35 567.91 723.17C564.5 716.21 556.68 704.2 547.15 700.19C502.88 682.67 415.7 711.21 370.84 725.9C359.2 729.7 350.88 739.65 357.68 751.13C377.56 782.79 421.22 776.88 452.84 771.29C471.63 768.28 472.51 779.65 466.73 794.18C451.39 835.48 423.56 877.33 389.06 904L388 904.81L388.01 904.8ZM573.59 958.38C573.59 958.38 573.62 958.38 573.63 958.38L573.68 958.34C573.68 958.34 573.68 958.34 573.68 958.33C573.68 958.33 573.69 958.33 573.7 958.34C573.7 958.34 573.7 958.34 573.69 958.34L573.64 958.38C573.64 958.39 573.62 958.4 573.61 958.41C573.61 958.39 573.6 958.38 573.6 958.37L573.59 958.38ZM629.64 751.72C629.61 751.27 629.63 750.89 629.57 750.38C629.79 750.82 629.98 751.24 630.17 751.65C630 751.65 629.82 751.67 629.64 751.71V751.72Z" fill="url(#paint2_linear_507_2)"/>
</g>
<defs>
<linearGradient id="paint0_linear_507_2" x1="657.26" y1="1378.51" x2="657.26" y2="0.000169044" gradientUnits="userSpaceOnUse">
<stop stop-color="#FFE836"/>
<stop offset="1" stop-color="#FF6726"/>
</linearGradient>
<linearGradient id="paint1_linear_507_2" x1="172.82" y1="1112.52" x2="172.82" y2="1112.01" gradientUnits="userSpaceOnUse">
<stop stop-color="#FFE836"/>
<stop offset="1" stop-color="#FF6726"/>
</linearGradient>
<linearGradient id="paint2_linear_507_2" x1="627.2" y1="1062.79" x2="627.2" y2="408.54" gradientUnits="userSpaceOnUse">
<stop stop-color="#FFE836"/>
<stop offset="1" stop-color="#FF6726"/>
</linearGradient>
<clipPath id="clip0_507_2">
<rect width="1314.52" height="1378.51" fill="white"/>
</clipPath>
</defs>
</svg>
